# xmcd
#
# Track frame offsets: 
#        150
#        790
#        15135
#        25766
#        38686
#        48893
#        71721
#        91362
#        103986
#        118107
#        128257
#        151161
#        161352
#        180951
#        195013
#        210318
#        224359
#
# Disc length: 3189 seconds
#
# Revision: 0
# Processed by: cddbd v1.5.2PL0 Copyright (c) Steve Scherf et al.
# Submitted via: ExactAudioCopy v0.95b4
#
DISCID=b80c7311
DTITLE=Coal Creek Bluegrass Band - Live at the Altona Grange
DYEAR=2004
DGENRE=Bluegrass
TTITLE0=Introduction
TTITLE1=Weary Lonesome Blues
TTITLE2=Stay Away from Me
TTITLE3=Doug's Tune
TTITLE4=Down South in New Orleans
TTITLE5=Blue Moon of Kentucky
TTITLE6=Southern Flavor
TTITLE7=Red Clay Halo
TTITLE8=Jambalaya
TTITLE9=Clinch Mountain Backstep
TTITLE10=Intro - Freeborn Man
TTITLE11=I'll Go Steppin' Too
TTITLE12=Intro - Shackles and Chains
TTITLE13=First Little Lie
TTITLE14=Cluck Old Hen
TTITLE15=What a Waste of Good Corn Liquor
TTITLE16=Molly and Tenbrooks
EXTD=
EXTT0=
EXTT1=
EXTT2=
EXTT3=
EXTT4=
EXTT5=
EXTT6=
EXTT7=
EXTT8=
EXTT9=
EXTT10=
EXTT11=
EXTT12=
EXTT13=
EXTT14=
EXTT15=
EXTT16=
PLAYORDER=
